<svg width="47" height="47" viewBox="0 0 47 47" fill="none" xmlns="http://www.w3.org/2000/svg">
<path d="M43.3754 23.582C43.3754 21.9178 43.2376 20.7033 42.9394 19.4439H23.5476V26.9555H34.9302C34.7008 28.8222 33.4615 31.6334 30.7076 33.5225L30.669 33.774L36.8003 38.4288L37.2251 38.4704C41.1264 34.9394 43.3754 29.7442 43.3754 23.582" fill="#4285F4"/>
<path d="M23.5463 43.3734C29.1228 43.3734 33.8043 41.5741 37.2238 38.4706L30.7063 33.5226C28.9622 34.7146 26.6214 35.5467 23.5463 35.5467C18.0845 35.5467 13.4489 32.0159 11.7964 27.1355L11.5542 27.1557L5.1788 31.9911L5.09543 32.2182C8.49182 38.8303 15.4683 43.3734 23.5463 43.3734Z" fill="#34A853"/>
<path d="M11.7977 27.1357C11.3616 25.8762 11.1093 24.5267 11.1093 23.1324C11.1093 21.738 11.3616 20.3886 11.7747 19.1292L11.7632 18.861L5.30783 13.948L5.09662 14.0464C3.6968 16.7902 2.89359 19.8714 2.89359 23.1324C2.89359 26.3935 3.6968 29.4745 5.09662 32.2183L11.7977 27.1357" fill="#FBBC05"/>
<path d="M23.5464 10.718C27.4247 10.718 30.0409 12.3598 31.5326 13.7317L37.3616 8.15421C33.7817 4.89318 29.1229 2.89157 23.5464 2.89157C15.4683 2.89157 8.49184 7.4345 5.09543 14.0465L11.7735 19.1293C13.449 14.249 18.0846 10.718 23.5464 10.718" fill="#EB4335"/>
</svg>
