<svg width="228" height="160" viewBox="0 0 228 160" fill="none" xmlns="http://www.w3.org/2000/svg">
<rect width="228" height="160" fill="#F5F7FA"/>
<path opacity="0.2" d="M67.4971 99.3739L91.882 74.989C92.2418 74.6292 92.669 74.3438 93.1391 74.1491C93.6092 73.9543 94.1131 73.8541 94.622 73.8541C95.1309 73.8541 95.6348 73.9543 96.1049 74.1491C96.575 74.3438 97.0022 74.6292 97.362 74.989L119.007 96.634C119.367 96.9938 119.794 97.2792 120.264 97.474C120.734 97.6687 121.238 97.7689 121.747 97.7689C122.256 97.7689 122.76 97.6687 123.23 97.474C123.7 97.2792 124.127 96.9938 124.487 96.634L134.507 86.614C134.867 86.2542 135.294 85.9688 135.764 85.7741C136.234 85.5793 136.738 85.4791 137.247 85.4791C137.756 85.4791 138.26 85.5793 138.73 85.7741C139.2 85.9688 139.627 86.2542 139.987 86.614L160.497 107.124L160.497 45.124C160.497 44.0963 160.089 43.1107 159.362 42.384C158.635 41.6573 157.65 41.249 156.622 41.249H71.3721C70.3444 41.249 69.3587 41.6573 68.632 42.384C67.9053 43.1107 67.4971 44.0963 67.4971 45.124V99.3739Z" fill="#B7BAC7"/>
<path d="M156.622 41.249H71.3721C69.232 41.249 67.4971 42.9839 67.4971 45.124V114.874C67.4971 117.014 69.232 118.749 71.3721 118.749H156.622C158.762 118.749 160.497 117.014 160.497 114.874V45.124C160.497 42.9839 158.762 41.249 156.622 41.249Z" stroke="#B7BAC7" stroke-width="6" stroke-linecap="round" stroke-linejoin="round"/>
<path d="M67.4971 99.3763L91.882 74.9914C92.2418 74.6316 92.669 74.3461 93.1391 74.1514C93.6092 73.9567 94.1131 73.8564 94.622 73.8564C95.1309 73.8564 95.6348 73.9567 96.1049 74.1514C96.575 74.3461 97.0022 74.6316 97.362 74.9914L119.007 96.6363C119.367 96.9962 119.794 97.2816 120.264 97.4763C120.734 97.6711 121.238 97.7713 121.747 97.7713C122.256 97.7713 122.76 97.6711 123.23 97.4763C123.7 97.2816 124.127 96.9962 124.487 96.6363L134.507 86.6164C134.867 86.2566 135.294 85.9711 135.764 85.7764C136.234 85.5817 136.738 85.4814 137.247 85.4814C137.756 85.4814 138.26 85.5817 138.73 85.7764C139.2 85.9711 139.627 86.2566 139.987 86.6164L160.497 107.126" stroke="#B7BAC7" stroke-width="6" stroke-linecap="round" stroke-linejoin="round"/>
<path d="M127.56 72.2471C130.77 72.2471 133.372 69.6447 133.372 66.4346C133.372 63.2244 130.77 60.6221 127.56 60.6221C124.349 60.6221 121.747 63.2244 121.747 66.4346C121.747 69.6447 124.349 72.2471 127.56 72.2471Z" fill="#B7BAC7"/>
</svg>
