<svg width="20" height="20" viewBox="0 0 20 20" fill="none" xmlns="http://www.w3.org/2000/svg">
<path d="M10.4127 15.8781L15.1377 18.8781C15.7471 19.2625 16.4971 18.6906 16.319 17.9875L14.9502 12.6063C14.9132 12.4571 14.9191 12.3005 14.9672 12.1546C15.0153 12.0086 15.1037 11.8792 15.2221 11.7813L19.4596 8.2469C20.0127 7.78752 19.7315 6.8594 19.0096 6.81252L13.4784 6.45627C13.3274 6.44749 13.1823 6.39494 13.0608 6.30503C12.9393 6.21513 12.8466 6.09177 12.794 5.95002L10.7315 0.756273C10.6769 0.606182 10.5774 0.476526 10.4466 0.384906C10.3158 0.293286 10.16 0.244141 10.0002 0.244141C9.84053 0.244141 9.68468 0.293286 9.55386 0.384906C9.42305 0.476526 9.32359 0.606182 9.26899 0.756273L7.20649 5.95002C7.15392 6.09177 7.06121 6.21513 6.93967 6.30503C6.81813 6.39494 6.67304 6.44749 6.52212 6.45627L0.990865 6.81252C0.26899 6.8594 -0.0122599 7.78752 0.540865 8.2469L4.77837 11.7813C4.8968 11.8792 4.98516 12.0086 5.03327 12.1546C5.08137 12.3005 5.08725 12.4571 5.05024 12.6063L3.78462 17.5938C3.56899 18.4375 4.46899 19.1219 5.19087 18.6625L9.58774 15.8781C9.71104 15.7997 9.85413 15.7581 10.0002 15.7581C10.1464 15.7581 10.2894 15.7997 10.4127 15.8781Z" fill="#FFBE00"/>
</svg>
