<svg width="11" height="14" viewBox="0 0 11 14" fill="none" xmlns="http://www.w3.org/2000/svg">
<path d="M3.6905 3.99451L4.95 2.3841V9.09878C4.95 9.28448 5.00795 9.46257 5.11109 9.59388C5.21424 9.72518 5.35413 9.79895 5.5 9.79895C5.64587 9.79895 5.78576 9.72518 5.88891 9.59388C5.99205 9.46257 6.05 9.28448 6.05 9.09878V2.3841L7.3095 3.99451C7.36063 4.06013 7.42146 4.11222 7.48848 4.14777C7.55551 4.18331 7.62739 4.20162 7.7 4.20162C7.77261 4.20162 7.84449 4.18331 7.91152 4.14777C7.97854 4.11222 8.03937 4.06013 8.0905 3.99451C8.14205 3.92941 8.18297 3.85197 8.21089 3.76665C8.23881 3.68133 8.25319 3.58981 8.25319 3.49738C8.25319 3.40495 8.23881 3.31343 8.21089 3.22811C8.18297 3.14279 8.14205 3.06535 8.0905 3.00026L5.8905 0.199559C5.83819 0.135815 5.77651 0.0858469 5.709 0.0525226C5.5751 -0.0175075 5.4249 -0.0175075 5.291 0.0525226C5.22349 0.0858469 5.16181 0.135815 5.1095 0.199559L2.9095 3.00026C2.85822 3.06554 2.81754 3.14304 2.78979 3.22834C2.76203 3.31364 2.74775 3.40506 2.74775 3.49738C2.74775 3.58971 2.76203 3.68113 2.78979 3.76642C2.81754 3.85172 2.85822 3.92922 2.9095 3.99451C2.96078 4.05979 3.02166 4.11157 3.08866 4.1469C3.15567 4.18224 3.22748 4.20042 3.3 4.20042C3.37252 4.20042 3.44434 4.18224 3.51134 4.1469C3.57834 4.11157 3.63922 4.05979 3.6905 3.99451ZM10.45 6.99825C10.3041 6.99825 10.1642 7.07202 10.0611 7.20333C9.95795 7.33464 9.9 7.51273 9.9 7.69843V11.8995C9.9 12.0852 9.84205 12.2633 9.73891 12.3946C9.63576 12.5259 9.49587 12.5997 9.35 12.5997H1.65C1.50413 12.5997 1.36424 12.5259 1.26109 12.3946C1.15795 12.2633 1.1 12.0852 1.1 11.8995V7.69843C1.1 7.51273 1.04205 7.33464 0.938909 7.20333C0.835764 7.07202 0.695869 6.99825 0.55 6.99825C0.404131 6.99825 0.264236 7.07202 0.161091 7.20333C0.0579462 7.33464 0 7.51273 0 7.69843V11.8995C0 12.4566 0.173839 12.9908 0.483274 13.3848C0.792709 13.7787 1.21239 14 1.65 14H9.35C9.78761 14 10.2073 13.7787 10.5167 13.3848C10.8262 12.9908 11 12.4566 11 11.8995V7.69843C11 7.51273 10.9421 7.33464 10.8389 7.20333C10.7358 7.07202 10.5959 6.99825 10.45 6.99825Z" fill="#F48C06"/>
</svg>
